#!OML:ASF H:\Terrain\Patient Classification 1\Walking\steve\steve.ASF
:FULLY-SPECIFIED
:DEGREES
136
root 7.21992 15.5004 -3.18885 9.30126 -10.4065 -9.65358
lowerback 0.652424 9.83077 8.88309
upperback -1.31339 13.2309 1.14936
thorax -0.0360687 6.55986 -3.50848
lowerneck -7.13318 -3.99127 -3.20029
upperneck 12.2523 -5.3897 3.06302
head 5.02244 -2.58785 1.12024
rclavicle -5.23052e-015 -3.22031e-014
rhumerus 26.5309 9.18541 -65.4771
rradius 38.72
rwrist -23.4247
rhand -19.9341 -38.5558
rfingers 7.12502
rthumb 6.40342 -68.439
lclavicle -5.23052e-015 -3.22031e-014
lhumerus -74.3146 1.8273 26.5715
lradius 12.7104
lwrist -17.4938
lhand -18.1624 -9.80323
lfingers 7.12502
lthumb 8.11359 20.021
rfemur 13.8484 1.45264 28.3219
rtibia 19.0566
rfoot -2.95461 22.0219
rtoes 4.53007
lfemur -48.4471 0.0916246 -1.7461
ltibia 14.3287
lfoot -19.6344 20.447
ltoes -17.7373
137
root 7.24106 15.4255 -2.93975 9.30905 -11.204 -10.1836
lowerback 1.1628 10.1654 9.3049
upperback -1.45433 13.7463 0.989507
thorax -0.267837 6.80039 -3.95582
lowerneck -6.41836 -4.0892 -3.38199
upperneck 11.323 -5.53775 3.39624
head 4.63514 -2.66203 1.26466
rclavicle 1.08518e-013 -2.49972e-014
rhumerus 27.3876 8.20247 -65.4555
rradius 38.4806
rwrist -22.878
rhand -18.6811 -38.4624
rfingers 7.12502
rthumb 7.61301 -68.3054
lclavicle 1.08518e-013 -2.49972e-014
lhumerus -74.9252 2.14676 21.7907
lradius 12.631
lwrist -18.8151
lhand -17.9735 -9.34677
lfingers 7.12502
lthumb 8.29592 20.4703
rfemur 15.7994 2.34129 28.4831
rtibia 17.045
rfoot -0.934118 21.3877
rtoes 4.50667
lfemur -49.4933 0.816924 -0.829714
ltibia 15.9789
lfoot -21.79 18.0439
ltoes -11.0034
138
root 7.25929 15.3646 -2.68243 9.36287 -11.857 -10.1034
lowerback 1.4133 10.4393 9.13534
upperback -1.54063 14.1381 0.636909
thorax -0.393932 6.99117 -4.25684
lowerneck -6.54328 -4.09501 -3.73479
upperneck 11.1964 -5.57994 4.05664
head 4.6472 -2.65872 1.51988
rclavicle 1.24421e-013 1.06847e-014
rhumerus 28.0802 7.51926 -65.4539
rradius 38.8521
rwrist -23.7048
rhand -19.077 -37.8373
rfingers 7.12502
rthumb 7.2308 -67.6938
lclavicle 1.24421e-013 1.06847e-014
lhumerus -75.6164 1.58882 19.2426
lradius 13.1917
lwrist -17.3598
lhand -17.7607 -8.45816
lfingers 7.12502
lthumb 8.50127 21.3507
rfemur 17.4472 2.97418 27.9723
rtibia 15.4807
rfoot 1.25943 20.5834
rtoes 4.94747
lfemur -50.6847 1.20507 -0.601568
ltibia 17.7224
lfoot -23.0775 16.8679
ltoes -8.91009
139
root 7.27763 15.3021 -2.41664 9.47531 -12.2614 -9.8423
lowerback 1.3096 10.6122 8.7423
upperback -1.45894 14.3417 0.312737
thorax -0.232031 7.10766 -4.33985
lowerneck -7.32415 -4.08996 -3.79984
upperneck 11.3264 -5.5746 4.27436
head 4.82628 -2.63499 1.58087
rclavicle 1.19407e-013 9.83984e-015
rhumerus 29.1912 6.61762 -65.3669
rradius 38.6581
rwrist -22.8905
rhand -18.8669 -37.5575
rfingers 7.12502
rthumb 7.43365 -67.4069
lclavicle 1.19407e-013 9.83984e-015
lhumerus -76.3086 1.52664 16.0736
lradius 13.6084
lwrist -16.531
lhand -17.3715 -7.64698
lfingers 7.12502
lthumb 8.87687 22.1463
rfemur 18.162 3.29747 27.295
rtibia 15.5863
rfoot 2.75482 20.2316
rtoes 5.60186
lfemur -50.86 1.28303 -0.554765
ltibia 17.3068
lfoot -22.8151 17.0389
ltoes -9.67533
140
root 7.29473 15.2341 -2.14732 9.654 -12.5232 -9.74587
lowerback 1.11951 10.7725 8.42233
upperback -1.36455 14.5235 0.0758027
thorax -0.0185238 7.21407 -4.35331
lowerneck -7.55428 -4.16775 -3.6629
upperneck 10.7474 -5.64466 4.06011
head 4.67988 -2.67849 1.48751
rclavicle 1.35646e-013 2.16675e-014
rhumerus 30.1 5.68158 -65.181
rradius 38.6064
rwrist -22.027
rhand -18.4545 -37.4686
rfingers 7.12502
rthumb 7.83173 -67.3036
lclavicle 1.35646e-013 2.16675e-014
lhumerus -76.6175 2.24536 11.364
lradius 13.3199
lwrist -17.7474
lhand -16.5611 -7.09696
lfingers 7.12502
lthumb 9.65883 22.6616
rfemur 18.8042 3.59266 26.8728
rtibia 15.7471
rfoot 3.7884 19.9391
rtoes 5.71429
lfemur -51.2255 1.24382 -0.394307
ltibia 17.1861
lfoot -21.5537 18.4841
ltoes -13.47
141
root 7.31192 15.1655 -1.87777 9.78921 -12.8551 -9.64557
lowerback 1.10052 10.9096 8.04865
upperback -1.30926 14.6944 -0.135112
thorax 0.0382223 7.3073 -4.35736
lowerneck -7.56114 -4.23993 -3.89324
upperneck 10.1291 -5.71458 4.23199
head 4.50579 -2.71679 1.57722
rclavicle -4.94228e-014 3.18055e-015
rhumerus 30.8035 4.94311 -65.1308
rradius 38.769
rwrist -21.9513
rhand -17.5062 -37.1257
rfingers 7.12502
rthumb 8.74686 -66.9245
lclavicle -4.94228e-014 3.18055e-015
lhumerus -77.0025 2.95817 6.80421
lradius 12.894
lwrist -19.3499
lhand -16.5521 -6.46341
lfingers 7.12502
lthumb 9.66753 23.2947
rfemur 19.5063 4.06094 26.5178
rtibia 15.8299
rfoot 4.42426 19.4915
rtoes 4.80544
lfemur -51.7738 3.68051 -2.53149
ltibia 17.5597
lfoot -18.6212 17.1463
ltoes -17.6693
142
root 7.33246 15.088 -1.60397 9.86237 -13.2481 -9.36639
lowerback 1.45447 10.966 7.36373
upperback -1.51972 14.7976 -0.32337
thorax -0.478168 7.34003 -4.31216
lowerneck -7.80362 -4.22077 -4.25744
upperneck 10.1983 -5.68166 4.59525
head 4.58711 -2.69001 1.74403
rclavicle -1.023e-013 -1.90833e-014
rhumerus 31.1533 4.56502 -65.178
rradius 38.7968
rwrist -21.6146
rhand -16.9796 -36.8626
rfingers 7.12502
rthumb 9.25504 -66.6395
lclavicle -1.023e-013 -1.90833e-014
lhumerus -77.665 3.19615 2.13524
lradius 12.502
lwrist -21.4309
lhand -16.9847 -5.92478
lfingers 7.12502
lthumb 9.25014 23.8523
rfemur 20.3424 4.62171 25.9692
rtibia 15.7209
rfoot 5.58586 18.6897
rtoes 5.64839
lfemur -52.3041 4.45509 -3.30583
ltibia 18.5996
lfoot -18.6386 15.872
ltoes -16.017
143
root 7.35283 15.0103 -1.31447 9.98495 -13.5071 -8.78294
lowerback 1.65524 11.0263 6.4278
upperback -1.81446 14.8808 -0.653378
thorax -1.02541 7.36546 -4.26609
lowerneck -8.23344 -4.22191 -4.34393
upperneck 10.501 -5.68112 4.70041
head 4.75761 -2.67865 1.7796
rclavicle -5.51627e-015 -9.93923e-015
rhumerus 31.1509 4.25917 -65.1194
rradius 38.9928
rwrist -21.3771
rhand -17.5116 -37.6069
rfingers 7.12502
rthumb 8.74165 -67.4058
lclavicle -5.51627e-015 -9.93923e-015
lhumerus -78.0576 3.50421 -2.77845
lradius 12.2536
lwrist -24.1401
lhand -17.0296 -5.13289
lfingers 7.12502
lthumb 9.20678 24.6461
rfemur 21.1194 5.03773 25.0727
rtibia 15.6609
rfoot 7.09135 17.8216
rtoes 7.00556
lfemur -53.0205 5.11052 -4.5501
ltibia 20.1361
lfoot -18.7861 14.4596
ltoes -14.764
